<svg width="51" height="45" viewBox="0 0 51 45" fill="none" xmlns="http://www.w3.org/2000/svg">
<path d="M5.1875 41.1055C5.14323 41.7174 4.91667 42.1992 4.50781 42.5508C4.10156 42.9023 3.5651 43.0781 2.89844 43.0781C2.16927 43.0781 1.59505 42.8333 1.17578 42.3438C0.759115 41.8516 0.550781 41.1771 0.550781 40.3203V39.9727C0.550781 39.4258 0.647135 38.944 0.839844 38.5273C1.03255 38.1107 1.30729 37.7917 1.66406 37.5703C2.02344 37.3464 2.4401 37.2344 2.91406 37.2344C3.57031 37.2344 4.09896 37.4102 4.5 37.7617C4.90104 38.1133 5.13281 38.6068 5.19531 39.2422H4.02344C3.99479 38.875 3.89193 38.6094 3.71484 38.4453C3.54036 38.2786 3.27344 38.1953 2.91406 38.1953C2.52344 38.1953 2.23047 38.3359 2.03516 38.6172C1.84245 38.8958 1.74349 39.3294 1.73828 39.918V40.3477C1.73828 40.9622 1.83073 41.4115 2.01562 41.6953C2.20312 41.9792 2.4974 42.1211 2.89844 42.1211C3.26042 42.1211 3.52995 42.0391 3.70703 41.875C3.88672 41.7083 3.98958 41.4518 4.01562 41.1055H5.1875ZM8.41406 42.5703C8.13542 42.9089 7.75 43.0781 7.25781 43.0781C6.80469 43.0781 6.45833 42.9479 6.21875 42.6875C5.98177 42.4271 5.86068 42.0456 5.85547 41.543V38.7734H6.98438V41.5039C6.98438 41.944 7.1849 42.1641 7.58594 42.1641C7.96875 42.1641 8.23177 42.0312 8.375 41.7656V38.7734H9.50781V43H8.44531L8.41406 42.5703ZM12.7344 39.832C12.5807 39.8112 12.4453 39.8008 12.3281 39.8008C11.901 39.8008 11.6211 39.9453 11.4883 40.2344V43H10.3594V38.7734H11.4258L11.457 39.2773C11.6836 38.8893 11.9974 38.6953 12.3984 38.6953C12.5234 38.6953 12.6406 38.7122 12.75 38.7461L12.7344 39.832ZM15.6562 39.832C15.5026 39.8112 15.3672 39.8008 15.25 39.8008C14.8229 39.8008 14.543 39.9453 14.4102 40.2344V43H13.2812V38.7734H14.3477L14.3789 39.2773C14.6055 38.8893 14.9193 38.6953 15.3203 38.6953C15.4453 38.6953 15.5625 38.7122 15.6719 38.7461L15.6562 39.832ZM18.0703 43.0781C17.4505 43.0781 16.9453 42.888 16.5547 42.5078C16.1667 42.1276 15.9727 41.6211 15.9727 40.9883V40.8789C15.9727 40.4544 16.0547 40.0755 16.2188 39.7422C16.3828 39.4062 16.6146 39.1484 16.9141 38.9688C17.2161 38.7865 17.5599 38.6953 17.9453 38.6953C18.5234 38.6953 18.9779 38.8776 19.3086 39.2422C19.6419 39.6068 19.8086 40.1237 19.8086 40.793V41.2539H17.1172C17.1536 41.5299 17.263 41.7513 17.4453 41.918C17.6302 42.0846 17.8633 42.168 18.1445 42.168C18.5794 42.168 18.9193 42.0104 19.1641 41.6953L19.7188 42.3164C19.5495 42.556 19.3203 42.7435 19.0312 42.8789C18.7422 43.0117 18.4219 43.0781 18.0703 43.0781ZM17.9414 39.6094C17.7174 39.6094 17.5352 39.6849 17.3945 39.8359C17.2565 39.987 17.168 40.2031 17.1289 40.4844H18.6992V40.3945C18.694 40.1445 18.6263 39.9518 18.4961 39.8164C18.3659 39.6784 18.181 39.6094 17.9414 39.6094ZM21.4922 38.7734L21.5273 39.2617C21.8294 38.8841 22.2344 38.6953 22.7422 38.6953C23.1901 38.6953 23.5234 38.8268 23.7422 39.0898C23.9609 39.3529 24.0729 39.7461 24.0781 40.2695V43H22.9492V40.2969C22.9492 40.0573 22.8971 39.8841 22.793 39.7773C22.6888 39.668 22.5156 39.6133 22.2734 39.6133C21.9557 39.6133 21.7174 39.7487 21.5586 40.0195V43H20.4297V38.7734H21.4922ZM26.2891 37.7344V38.7734H27.0117V39.6016H26.2891V41.7109C26.2891 41.8672 26.319 41.9792 26.3789 42.0469C26.4388 42.1146 26.5534 42.1484 26.7227 42.1484C26.8477 42.1484 26.9583 42.1393 27.0547 42.1211V42.9766C26.8333 43.0443 26.6055 43.0781 26.3711 43.0781C25.5794 43.0781 25.1758 42.6784 25.1602 41.8789V39.6016H24.543V38.7734H25.1602V37.7344H26.2891ZM33.1289 40.6758H30.8789V43H29.707V37.3125H33.4102V38.2617H30.8789V39.7305H33.1289V40.6758ZM33.7539 40.8477C33.7539 40.4284 33.8346 40.0547 33.9961 39.7266C34.1576 39.3984 34.3893 39.1445 34.6914 38.9648C34.9961 38.7852 35.349 38.6953 35.75 38.6953C36.3203 38.6953 36.7852 38.8698 37.1445 39.2188C37.5065 39.5677 37.7083 40.0417 37.75 40.6406L37.7578 40.9297C37.7578 41.5781 37.5768 42.099 37.2148 42.4922C36.8529 42.8828 36.3672 43.0781 35.7578 43.0781C35.1484 43.0781 34.6615 42.8828 34.2969 42.4922C33.9349 42.1016 33.7539 41.5703 33.7539 40.8984V40.8477ZM34.8828 40.9297C34.8828 41.3307 34.9583 41.638 35.1094 41.8516C35.2604 42.0625 35.4766 42.168 35.7578 42.168C36.0312 42.168 36.2448 42.0638 36.3984 41.8555C36.5521 41.6445 36.6289 41.3086 36.6289 40.8477C36.6289 40.4544 36.5521 40.1497 36.3984 39.9336C36.2448 39.7174 36.0286 39.6094 35.75 39.6094C35.474 39.6094 35.2604 39.7174 35.1094 39.9336C34.9583 40.1471 34.8828 40.4792 34.8828 40.9297ZM40.2109 42.168C40.4193 42.168 40.5885 42.1107 40.7188 41.9961C40.849 41.8815 40.9167 41.7292 40.9219 41.5391H41.9805C41.9779 41.8255 41.8997 42.0885 41.7461 42.3281C41.5924 42.5651 41.3815 42.75 41.1133 42.8828C40.8477 43.013 40.5534 43.0781 40.2305 43.0781C39.6263 43.0781 39.1497 42.8867 38.8008 42.5039C38.4518 42.1185 38.2773 41.5872 38.2773 40.9102V40.8359C38.2773 40.1849 38.4505 39.6654 38.7969 39.2773C39.1432 38.8893 39.6185 38.6953 40.2227 38.6953C40.7513 38.6953 41.1745 38.8464 41.4922 39.1484C41.8125 39.4479 41.9753 39.8477 41.9805 40.3477H40.9219C40.9167 40.1289 40.849 39.9518 40.7188 39.8164C40.5885 39.6784 40.4167 39.6094 40.2031 39.6094C39.9401 39.6094 39.7409 39.7057 39.6055 39.8984C39.4727 40.0885 39.4062 40.3984 39.4062 40.8281V40.9453C39.4062 41.3802 39.4727 41.6927 39.6055 41.8828C39.7383 42.0729 39.9401 42.168 40.2109 42.168ZM45.1562 42.5703C44.8776 42.9089 44.4922 43.0781 44 43.0781C43.5469 43.0781 43.2005 42.9479 42.9609 42.6875C42.724 42.4271 42.6029 42.0456 42.5977 41.543V38.7734H43.7266V41.5039C43.7266 41.944 43.9271 42.1641 44.3281 42.1641C44.7109 42.1641 44.974 42.0312 45.1172 41.7656V38.7734H46.25V43H45.1875L45.1562 42.5703ZM49.3906 41.832C49.3906 41.694 49.3216 41.5859 49.1836 41.5078C49.0482 41.4271 48.8294 41.3555 48.5273 41.293C47.5221 41.082 47.0195 40.6549 47.0195 40.0117C47.0195 39.6367 47.1745 39.3242 47.4844 39.0742C47.7969 38.8216 48.2044 38.6953 48.707 38.6953C49.2435 38.6953 49.6719 38.8216 49.9922 39.0742C50.3151 39.3268 50.4766 39.6549 50.4766 40.0586H49.3477C49.3477 39.8971 49.2956 39.7643 49.1914 39.6602C49.0872 39.5534 48.9245 39.5 48.7031 39.5C48.513 39.5 48.3659 39.543 48.2617 39.6289C48.1576 39.7148 48.1055 39.8242 48.1055 39.957C48.1055 40.082 48.1641 40.1836 48.2812 40.2617C48.401 40.3372 48.6016 40.4036 48.8828 40.4609C49.1641 40.5156 49.401 40.5781 49.5938 40.6484C50.1901 40.8672 50.4883 41.2461 50.4883 41.7852C50.4883 42.1706 50.3229 42.4831 49.9922 42.7227C49.6615 42.9596 49.2344 43.0781 48.7109 43.0781C48.3568 43.0781 48.0417 43.0156 47.7656 42.8906C47.4922 42.763 47.2773 42.5898 47.1211 42.3711C46.9648 42.1497 46.8867 41.9115 46.8867 41.6562H47.957C47.9674 41.8568 48.0417 42.0104 48.1797 42.1172C48.3177 42.224 48.5026 42.2773 48.7344 42.2773C48.9505 42.2773 49.1133 42.237 49.2227 42.1562C49.3346 42.0729 49.3906 41.9648 49.3906 41.832Z" fill="#565656"/>
<path d="M25 24.4658L33.755 29.75L31.4317 19.7908L39.1667 13.09L28.9808 12.2258L25 2.83331L21.0192 12.2258L10.8333 13.09L18.5683 19.7908L16.245 29.75L25 24.4658Z" fill="#565656"/>
</svg>
