<svg width="39" height="45" viewBox="0 0 39 45" fill="none" xmlns="http://www.w3.org/2000/svg">
<path d="M29.9167 7.08333V9.91667H24.25V7.08333H29.9167ZM15.75 7.08333V15.5833H10.0833V7.08333H15.75ZM29.9167 18.4167V26.9167H24.25V18.4167H29.9167ZM15.75 24.0833V26.9167H10.0833V24.0833H15.75ZM32.75 4.25H21.4167V12.75H32.75V4.25ZM18.5833 4.25H7.25V18.4167H18.5833V4.25ZM32.75 15.5833H21.4167V29.75H32.75V15.5833ZM18.5833 21.25H7.25V29.75H18.5833V21.25Z" fill="#C4C4C4"/>
<path d="M0.628906 43V37.3125H2.37891C2.87891 37.3125 3.32552 37.4258 3.71875 37.6523C4.11458 37.8763 4.42318 38.1966 4.64453 38.6133C4.86589 39.0273 4.97656 39.4987 4.97656 40.0273V40.2891C4.97656 40.8177 4.86719 41.2878 4.64844 41.6992C4.43229 42.1107 4.1263 42.4297 3.73047 42.6562C3.33464 42.8828 2.88802 42.9974 2.39062 43H0.628906ZM1.80078 38.2617V42.0586H2.36719C2.82552 42.0586 3.17578 41.9089 3.41797 41.6094C3.66016 41.3099 3.78385 40.8815 3.78906 40.3242V40.0234C3.78906 39.4453 3.66927 39.0078 3.42969 38.7109C3.1901 38.4115 2.83984 38.2617 2.37891 38.2617H1.80078ZM8.20703 43C8.15495 42.8984 8.11719 42.7721 8.09375 42.6211C7.82031 42.9258 7.46484 43.0781 7.02734 43.0781C6.61328 43.0781 6.26953 42.9583 5.99609 42.7188C5.72526 42.4792 5.58984 42.1771 5.58984 41.8125C5.58984 41.3646 5.75521 41.0208 6.08594 40.7812C6.41927 40.5417 6.89974 40.4206 7.52734 40.418H8.04688V40.1758C8.04688 39.9805 7.99609 39.8242 7.89453 39.707C7.79557 39.5898 7.63802 39.5312 7.42188 39.5312C7.23177 39.5312 7.08203 39.5768 6.97266 39.668C6.86589 39.7591 6.8125 39.8841 6.8125 40.043H5.68359C5.68359 39.7982 5.75911 39.5716 5.91016 39.3633C6.0612 39.1549 6.27474 38.9922 6.55078 38.875C6.82682 38.7552 7.13672 38.6953 7.48047 38.6953C8.0013 38.6953 8.41406 38.8268 8.71875 39.0898C9.02604 39.3503 9.17969 39.7174 9.17969 40.1914V42.0234C9.18229 42.4245 9.23828 42.7279 9.34766 42.9336V43H8.20703ZM7.27344 42.2148C7.4401 42.2148 7.59375 42.1784 7.73438 42.1055C7.875 42.0299 7.97917 41.9297 8.04688 41.8047V41.0781H7.625C7.0599 41.0781 6.75911 41.2734 6.72266 41.6641L6.71875 41.7305C6.71875 41.8711 6.76823 41.987 6.86719 42.0781C6.96615 42.1693 7.10156 42.2148 7.27344 42.2148ZM12.3359 41.832C12.3359 41.694 12.2669 41.5859 12.1289 41.5078C11.9935 41.4271 11.7747 41.3555 11.4727 41.293C10.4674 41.082 9.96484 40.6549 9.96484 40.0117C9.96484 39.6367 10.1198 39.3242 10.4297 39.0742C10.7422 38.8216 11.1497 38.6953 11.6523 38.6953C12.1888 38.6953 12.6172 38.8216 12.9375 39.0742C13.2604 39.3268 13.4219 39.6549 13.4219 40.0586H12.293C12.293 39.8971 12.2409 39.7643 12.1367 39.6602C12.0326 39.5534 11.8698 39.5 11.6484 39.5C11.4583 39.5 11.3112 39.543 11.207 39.6289C11.1029 39.7148 11.0508 39.8242 11.0508 39.957C11.0508 40.082 11.1094 40.1836 11.2266 40.2617C11.3464 40.3372 11.5469 40.4036 11.8281 40.4609C12.1094 40.5156 12.3464 40.5781 12.5391 40.6484C13.1354 40.8672 13.4336 41.2461 13.4336 41.7852C13.4336 42.1706 13.2682 42.4831 12.9375 42.7227C12.6068 42.9596 12.1797 43.0781 11.6562 43.0781C11.3021 43.0781 10.987 43.0156 10.7109 42.8906C10.4375 42.763 10.2227 42.5898 10.0664 42.3711C9.91016 42.1497 9.83203 41.9115 9.83203 41.6562H10.9023C10.9128 41.8568 10.987 42.0104 11.125 42.1172C11.263 42.224 11.4479 42.2773 11.6797 42.2773C11.8958 42.2773 12.0586 42.237 12.168 42.1562C12.2799 42.0729 12.3359 41.9648 12.3359 41.832ZM15.2656 39.2344C15.5651 38.875 15.9414 38.6953 16.3945 38.6953C17.3112 38.6953 17.776 39.2279 17.7891 40.293V43H16.6602V40.3242C16.6602 40.082 16.6081 39.9036 16.5039 39.7891C16.3997 39.6719 16.2266 39.6133 15.9844 39.6133C15.6536 39.6133 15.4141 39.7409 15.2656 39.9961V43H14.1367V37H15.2656V39.2344ZM22.4492 40.9258C22.4492 41.6029 22.3047 42.1315 22.0156 42.5117C21.7266 42.8893 21.3229 43.0781 20.8047 43.0781C20.3464 43.0781 19.9805 42.9023 19.707 42.5508L19.6562 43H18.6406V37H19.7695V39.1523C20.0299 38.8477 20.3724 38.6953 20.7969 38.6953C21.3125 38.6953 21.7161 38.8854 22.0078 39.2656C22.3021 39.6432 22.4492 40.1758 22.4492 40.8633V40.9258ZM21.3203 40.8438C21.3203 40.4167 21.2526 40.1055 21.1172 39.9102C20.9818 39.7122 20.7799 39.6133 20.5117 39.6133C20.1523 39.6133 19.9049 39.7604 19.7695 40.0547V41.7227C19.9076 42.0195 20.1576 42.168 20.5195 42.168C20.8841 42.168 21.1237 41.9883 21.2383 41.6289C21.293 41.457 21.3203 41.1953 21.3203 40.8438ZM22.9727 40.8477C22.9727 40.4284 23.0534 40.0547 23.2148 39.7266C23.3763 39.3984 23.6081 39.1445 23.9102 38.9648C24.2148 38.7852 24.5677 38.6953 24.9688 38.6953C25.5391 38.6953 26.0039 38.8698 26.3633 39.2188C26.7253 39.5677 26.9271 40.0417 26.9688 40.6406L26.9766 40.9297C26.9766 41.5781 26.7956 42.099 26.4336 42.4922C26.0716 42.8828 25.5859 43.0781 24.9766 43.0781C24.3672 43.0781 23.8802 42.8828 23.5156 42.4922C23.1536 42.1016 22.9727 41.5703 22.9727 40.8984V40.8477ZM24.1016 40.9297C24.1016 41.3307 24.1771 41.638 24.3281 41.8516C24.4792 42.0625 24.6953 42.168 24.9766 42.168C25.25 42.168 25.4635 42.0638 25.6172 41.8555C25.7708 41.6445 25.8477 41.3086 25.8477 40.8477C25.8477 40.4544 25.7708 40.1497 25.6172 39.9336C25.4635 39.7174 25.2474 39.6094 24.9688 39.6094C24.6927 39.6094 24.4792 39.7174 24.3281 39.9336C24.1771 40.1471 24.1016 40.4792 24.1016 40.9297ZM30.1211 43C30.069 42.8984 30.0312 42.7721 30.0078 42.6211C29.7344 42.9258 29.3789 43.0781 28.9414 43.0781C28.5273 43.0781 28.1836 42.9583 27.9102 42.7188C27.6393 42.4792 27.5039 42.1771 27.5039 41.8125C27.5039 41.3646 27.6693 41.0208 28 40.7812C28.3333 40.5417 28.8138 40.4206 29.4414 40.418H29.9609V40.1758C29.9609 39.9805 29.9102 39.8242 29.8086 39.707C29.7096 39.5898 29.5521 39.5312 29.3359 39.5312C29.1458 39.5312 28.9961 39.5768 28.8867 39.668C28.7799 39.7591 28.7266 39.8841 28.7266 40.043H27.5977C27.5977 39.7982 27.6732 39.5716 27.8242 39.3633C27.9753 39.1549 28.1888 38.9922 28.4648 38.875C28.7409 38.7552 29.0508 38.6953 29.3945 38.6953C29.9154 38.6953 30.3281 38.8268 30.6328 39.0898C30.9401 39.3503 31.0938 39.7174 31.0938 40.1914V42.0234C31.0964 42.4245 31.1523 42.7279 31.2617 42.9336V43H30.1211ZM29.1875 42.2148C29.3542 42.2148 29.5078 42.1784 29.6484 42.1055C29.7891 42.0299 29.8932 41.9297 29.9609 41.8047V41.0781H29.5391C28.974 41.0781 28.6732 41.2734 28.6367 41.6641L28.6328 41.7305C28.6328 41.8711 28.6823 41.987 28.7812 42.0781C28.8802 42.1693 29.0156 42.2148 29.1875 42.2148ZM34.3359 39.832C34.1823 39.8112 34.0469 39.8008 33.9297 39.8008C33.5026 39.8008 33.2227 39.9453 33.0898 40.2344V43H31.9609V38.7734H33.0273L33.0586 39.2773C33.2852 38.8893 33.599 38.6953 34 38.6953C34.125 38.6953 34.2422 38.7122 34.3516 38.7461L34.3359 39.832ZM34.6289 40.8555C34.6289 40.1966 34.776 39.6719 35.0703 39.2812C35.3672 38.8906 35.7721 38.6953 36.2852 38.6953C36.6966 38.6953 37.0365 38.849 37.3047 39.1562V37H38.4375V43H37.418L37.3633 42.5508C37.082 42.9023 36.7201 43.0781 36.2773 43.0781C35.7799 43.0781 35.3802 42.8828 35.0781 42.4922C34.7786 42.099 34.6289 41.5534 34.6289 40.8555ZM35.7578 40.9375C35.7578 41.3333 35.8268 41.6367 35.9648 41.8477C36.1029 42.0586 36.3034 42.1641 36.5664 42.1641C36.9154 42.1641 37.1615 42.0169 37.3047 41.7227V40.0547C37.1641 39.7604 36.9206 39.6133 36.5742 39.6133C36.0299 39.6133 35.7578 40.0547 35.7578 40.9375Z" fill="#C4C4C4"/>
</svg>
