<svg width="34" height="45" viewBox="0 0 34 45" fill="none" xmlns="http://www.w3.org/2000/svg">
<path d="M6.78516 40.9961V43H5.61328V37.3125H7.83203C8.25911 37.3125 8.63411 37.3906 8.95703 37.5469C9.28255 37.7031 9.53255 37.9258 9.70703 38.2148C9.88151 38.5013 9.96875 38.8281 9.96875 39.1953C9.96875 39.7526 9.77734 40.1927 9.39453 40.5156C9.01432 40.8359 8.48698 40.9961 7.8125 40.9961H6.78516ZM6.78516 40.0469H7.83203C8.14193 40.0469 8.3776 39.974 8.53906 39.8281C8.70312 39.6823 8.78516 39.474 8.78516 39.2031C8.78516 38.9245 8.70312 38.6992 8.53906 38.5273C8.375 38.3555 8.14844 38.2669 7.85938 38.2617H6.78516V40.0469ZM13.0781 39.832C12.9245 39.8112 12.7891 39.8008 12.6719 39.8008C12.2448 39.8008 11.9648 39.9453 11.832 40.2344V43H10.7031V38.7734H11.7695L11.8008 39.2773C12.0273 38.8893 12.3411 38.6953 12.7422 38.6953C12.8672 38.6953 12.9844 38.7122 13.0938 38.7461L13.0781 39.832ZM13.3086 40.8477C13.3086 40.4284 13.3893 40.0547 13.5508 39.7266C13.7122 39.3984 13.944 39.1445 14.2461 38.9648C14.5508 38.7852 14.9036 38.6953 15.3047 38.6953C15.875 38.6953 16.3398 38.8698 16.6992 39.2188C17.0612 39.5677 17.263 40.0417 17.3047 40.6406L17.3125 40.9297C17.3125 41.5781 17.1315 42.099 16.7695 42.4922C16.4076 42.8828 15.9219 43.0781 15.3125 43.0781C14.7031 43.0781 14.2161 42.8828 13.8516 42.4922C13.4896 42.1016 13.3086 41.5703 13.3086 40.8984V40.8477ZM14.4375 40.9297C14.4375 41.3307 14.513 41.638 14.6641 41.8516C14.8151 42.0625 15.0312 42.168 15.3125 42.168C15.5859 42.168 15.7995 42.0638 15.9531 41.8555C16.1068 41.6445 16.1836 41.3086 16.1836 40.8477C16.1836 40.4544 16.1068 40.1497 15.9531 39.9336C15.7995 39.7174 15.5833 39.6094 15.3047 39.6094C15.0286 39.6094 14.8151 39.7174 14.6641 39.9336C14.513 40.1471 14.4375 40.4792 14.4375 40.9297ZM18.2812 43V39.6016H17.6523V38.7734H18.2812V38.5781C18.2865 38.0469 18.4492 37.638 18.7695 37.3516C19.0924 37.0625 19.5469 36.918 20.1328 36.918C20.4844 36.918 20.9115 36.9948 21.4141 37.1484L21.25 38.082C20.9948 38.0065 20.7969 37.9583 20.6562 37.9375C20.5156 37.9141 20.3646 37.9023 20.2031 37.9023C19.6771 37.9023 19.4141 38.1354 19.4141 38.6016V38.7734H20.2461V39.6016H19.4141V43H18.2812ZM21.9414 43H20.8086V38.7734H21.9414V43ZM24.0664 43H22.9336V37H24.0664V43ZM26.9453 43.0781C26.3255 43.0781 25.8203 42.888 25.4297 42.5078C25.0417 42.1276 24.8477 41.6211 24.8477 40.9883V40.8789C24.8477 40.4544 24.9297 40.0755 25.0938 39.7422C25.2578 39.4062 25.4896 39.1484 25.7891 38.9688C26.0911 38.7865 26.4349 38.6953 26.8203 38.6953C27.3984 38.6953 27.8529 38.8776 28.1836 39.2422C28.5169 39.6068 28.6836 40.1237 28.6836 40.793V41.2539H25.9922C26.0286 41.5299 26.138 41.7513 26.3203 41.918C26.5052 42.0846 26.7383 42.168 27.0195 42.168C27.4544 42.168 27.7943 42.0104 28.0391 41.6953L28.5938 42.3164C28.4245 42.556 28.1953 42.7435 27.9062 42.8789C27.6172 43.0117 27.2969 43.0781 26.9453 43.0781ZM26.8164 39.6094C26.5924 39.6094 26.4102 39.6849 26.2695 39.8359C26.1315 39.987 26.043 40.2031 26.0039 40.4844H27.5742V40.3945C27.569 40.1445 27.5013 39.9518 27.3711 39.8164C27.2409 39.6784 27.056 39.6094 26.8164 39.6094Z" fill="#565656"/>
<path d="M4.25 7.08333V26.9167C4.25 28.475 5.51083 29.75 7.08333 29.75H26.9167C28.475 29.75 29.75 28.475 29.75 26.9167V7.08333C29.75 5.525 28.475 4.25 26.9167 4.25H7.08333C5.51083 4.25 4.25 5.525 4.25 7.08333ZM21.25 12.75C21.25 15.1017 19.3517 17 17 17C14.6483 17 12.75 15.1017 12.75 12.75C12.75 10.3983 14.6483 8.5 17 8.5C19.3517 8.5 21.25 10.3983 21.25 12.75ZM8.5 24.0833C8.5 21.25 14.1667 19.6917 17 19.6917C19.8333 19.6917 25.5 21.25 25.5 24.0833V25.5H8.5V24.0833Z" fill="#565656"/>
</svg>
