<svg width="34" height="45" viewBox="0 0 34 45" fill="none" xmlns="http://www.w3.org/2000/svg">
<path d="M26.9167 4.25H7.08333C5.525 4.25 4.25 5.525 4.25 7.08333V26.9167C4.25 28.475 5.525 29.75 7.08333 29.75H26.9167C28.475 29.75 29.75 28.475 29.75 26.9167V7.08333C29.75 5.525 28.475 4.25 26.9167 4.25ZM19.8333 24.0833H9.91667V21.25H19.8333V24.0833ZM24.0833 18.4167H9.91667V15.5833H24.0833V18.4167ZM24.0833 12.75H9.91667V9.91667H24.0833V12.75Z" fill="#565656"/>
<path d="M6.30859 37.3125L7.76953 41.4375L9.22266 37.3125H10.7617V43H9.58594V41.4453L9.70312 38.7617L8.16797 43H7.36328L5.83203 38.7656L5.94922 41.4453V43H4.77734V37.3125H6.30859ZM13.2891 41.4023L14.0703 38.7734H15.2812L13.582 43.6562L13.4883 43.8789C13.2357 44.431 12.819 44.707 12.2383 44.707C12.0742 44.707 11.9076 44.6823 11.7383 44.6328V43.7773L11.9102 43.7812C12.1237 43.7812 12.2826 43.7487 12.3867 43.6836C12.4935 43.6185 12.5768 43.5104 12.6367 43.3594L12.7695 43.0117L11.2891 38.7734H12.5039L13.2891 41.4023ZM17.793 43V37.3125H19.543C20.043 37.3125 20.4896 37.4258 20.8828 37.6523C21.2786 37.8763 21.5872 38.1966 21.8086 38.6133C22.0299 39.0273 22.1406 39.4987 22.1406 40.0273V40.2891C22.1406 40.8177 22.0312 41.2878 21.8125 41.6992C21.5964 42.1107 21.2904 42.4297 20.8945 42.6562C20.4987 42.8828 20.0521 42.9974 19.5547 43H17.793ZM18.9648 38.2617V42.0586H19.5312C19.9896 42.0586 20.3398 41.9089 20.582 41.6094C20.8242 41.3099 20.9479 40.8815 20.9531 40.3242V40.0234C20.9531 39.4453 20.8333 39.0078 20.5938 38.7109C20.3542 38.4115 20.0039 38.2617 19.543 38.2617H18.9648ZM25.3711 43C25.319 42.8984 25.2812 42.7721 25.2578 42.6211C24.9844 42.9258 24.6289 43.0781 24.1914 43.0781C23.7773 43.0781 23.4336 42.9583 23.1602 42.7188C22.8893 42.4792 22.7539 42.1771 22.7539 41.8125C22.7539 41.3646 22.9193 41.0208 23.25 40.7812C23.5833 40.5417 24.0638 40.4206 24.6914 40.418H25.2109V40.1758C25.2109 39.9805 25.1602 39.8242 25.0586 39.707C24.9596 39.5898 24.8021 39.5312 24.5859 39.5312C24.3958 39.5312 24.2461 39.5768 24.1367 39.668C24.0299 39.7591 23.9766 39.8841 23.9766 40.043H22.8477C22.8477 39.7982 22.9232 39.5716 23.0742 39.3633C23.2253 39.1549 23.4388 38.9922 23.7148 38.875C23.9909 38.7552 24.3008 38.6953 24.6445 38.6953C25.1654 38.6953 25.5781 38.8268 25.8828 39.0898C26.1901 39.3503 26.3438 39.7174 26.3438 40.1914V42.0234C26.3464 42.4245 26.4023 42.7279 26.5117 42.9336V43H25.3711ZM24.4375 42.2148C24.6042 42.2148 24.7578 42.1784 24.8984 42.1055C25.0391 42.0299 25.1432 41.9297 25.2109 41.8047V41.0781H24.7891C24.224 41.0781 23.9232 41.2734 23.8867 41.6641L23.8828 41.7305C23.8828 41.8711 23.9323 41.987 24.0312 42.0781C24.1302 42.1693 24.2656 42.2148 24.4375 42.2148ZM28.7266 41.4023L29.5078 38.7734H30.7188L29.0195 43.6562L28.9258 43.8789C28.6732 44.431 28.2565 44.707 27.6758 44.707C27.5117 44.707 27.3451 44.6823 27.1758 44.6328V43.7773L27.3477 43.7812C27.5612 43.7812 27.7201 43.7487 27.8242 43.6836C27.931 43.6185 28.0143 43.5104 28.0742 43.3594L28.207 43.0117L26.7266 38.7734H27.9414L28.7266 41.4023Z" fill="#565656"/>
</svg>
